<?xml version="1.0" encoding="UTF-8" standalone="no"?>
<!-- Created with Inkscape (http://www.inkscape.org/) -->

<svg
   xmlns:dc="http://purl.org/dc/elements/1.1/"
   xmlns:cc="http://creativecommons.org/ns#"
   xmlns:rdf="http://www.w3.org/1999/02/22-rdf-syntax-ns#"
   xmlns:svg="http://www.w3.org/2000/svg"
   xmlns="http://www.w3.org/2000/svg"
   xmlns:xlink="http://www.w3.org/1999/xlink"
   xmlns:sodipodi="http://sodipodi.sourceforge.net/DTD/sodipodi-0.dtd"
   xmlns:inkscape="http://www.inkscape.org/namespaces/inkscape"
   width="685.927"
   height="503.82526"
   id="svg2"
   sodipodi:version="0.32"
   inkscape:version="0.92.3 (2405546, 2018-03-11)"
   sodipodi:docname="BrainCaudatePutamen (2).svg"
   inkscape:output_extension="org.inkscape.output.svg.inkscape"
   version="1.0">
  <defs
     id="defs4">
    <linearGradient
       inkscape:collect="always"
       id="linearGradient4761">
      <stop
         style="stop-color:#000000;stop-opacity:1;"
         offset="0"
         id="stop4763" />
      <stop
         style="stop-color:#000000;stop-opacity:0;"
         offset="1"
         id="stop4765" />
    </linearGradient>
    <inkscape:perspective
       sodipodi:type="inkscape:persp3d"
       inkscape:vp_x="0 : 526.18109 : 1"
       inkscape:vp_y="0 : 1000 : 0"
       inkscape:vp_z="744.09448 : 526.18109 : 1"
       inkscape:persp3d-origin="372.04724 : 350.78739 : 1"
       id="perspective10" />
    <inkscape:perspective
       id="perspective2464"
       inkscape:persp3d-origin="372.04724 : 350.78739 : 1"
       inkscape:vp_z="744.09448 : 526.18109 : 1"
       inkscape:vp_y="0 : 1000 : 0"
       inkscape:vp_x="0 : 526.18109 : 1"
       sodipodi:type="inkscape:persp3d" />
    <radialGradient
       inkscape:collect="always"
       xlink:href="#linearGradient4761"
       id="radialGradient4767"
       cx="178.37407"
       cy="411.07651"
       fx="178.37407"
       fy="411.07651"
       r="17.157604"
       gradientTransform="matrix(4,0,0,1.5221892,-541.59369,-244.65916)"
       gradientUnits="userSpaceOnUse" />
  </defs>
  <sodipodi:namedview
     id="base"
     pagecolor="#ffffff"
     bordercolor="#666666"
     borderopacity="1.0"
     gridtolerance="10000"
     guidetolerance="10"
     objecttolerance="10"
     inkscape:pageopacity="0.0"
     inkscape:pageshadow="2"
     inkscape:zoom="0.91744344"
     inkscape:cx="381.96322"
     inkscape:cy="257.66753"
     inkscape:document-units="px"
     inkscape:current-layer="layer1"
     showgrid="false"
     inkscape:window-width="1920"
     inkscape:window-height="1018"
     inkscape:window-x="-8"
     inkscape:window-y="-8"
     inkscape:window-maximized="1" />
  <metadata
     id="metadata7">
    <rdf:RDF>
      <cc:Work
         rdf:about="">
        <dc:format>image/svg+xml</dc:format>
        <dc:type
           rdf:resource="http://purl.org/dc/dcmitype/StillImage" />
        <dc:title></dc:title>
      </cc:Work>
    </rdf:RDF>
  </metadata>
  <g
     inkscape:label="Layer 1"
     inkscape:groupmode="layer"
     id="layer1"
     transform="translate(162.43226,-169.1637)">
    <path
       id="path2500"
       style="fill:#f1d18d;fill-opacity:1;fill-rule:evenodd;stroke:#000000;stroke-width:3.37680626px;stroke-linecap:butt;stroke-linejoin:miter;stroke-opacity:1"
       d="m 353.29307,611.06815 c -33.23428,-25.81728 -55.13304,-48.10368 -83.63952,-72.6378 l -1.35744,1.24748 -33.93628,17.465 c 0,0 0.67876,-1.24752 122.97932,112.63232 1.48744,0.98128 0.52756,0.98128 39.88196,1.42232 0,0 -39.3544,-0.44104 -0.323,0.0456 -25.0264,-21.63628 -32.20144,-53.52136 -43.60504,-60.17492 z"
       sodipodi:nodetypes="cccccccc"
       inkscape:connector-curvature="0" />
    <path
       id="path2472"
       style="fill:#f1d18d;fill-opacity:1;fill-rule:evenodd;stroke:#000000;stroke-width:3.37680626px;stroke-linecap:butt;stroke-linejoin:miter;stroke-opacity:1"
       d="m -144.48547,332.33503 c 59.21562,-91.37072 160.79522,-144.80684 271.85718,-157.35416 80.78572,-9.984 170.90516,-2.53964 241.65692,30.04676 78.88664,44.34064 141.81992,106.6446 151.92304,191.49992 3.01272,29.41116 -1.76792,60.19276 -17.13784,86.3892 -15.36988,26.19644 -285.68224,71.30032 -327.14564,92.31472 -41.46348,21.01444 -100.36152,29.86704 -138.02136,-1.93376 -25.28812,-16.21236 -32.9607199,-50.8076 -48.88248,-67.9866 -52.59192,-0.22904 -115.795,-14.56104 -138.20684,-63.52792 -16.00043,-35.31752 -18.2798,-59.20052 3.87468,-109.73788"
       sodipodi:nodetypes="cccccccccc"
       inkscape:connector-curvature="0" />
    <path
       style="fill:#fbf79c;fill-opacity:1;fill-rule:evenodd;stroke:#000000;stroke-width:3.37680626px;stroke-linecap:butt;stroke-linejoin:miter;stroke-opacity:1"
       d="m 353.63243,609.50879 c -36.89072,-5.9798 -55.88568,-46.66364 -92.48744,-55.20136 -37.78788,-25.23272 -9.66952,-62.8544 24.23152,-74.39768 28.4004,-25.60904 71.97472,-6.24784 104.08364,-24.96684 32.54788,-14.6442 73.15856,-3.52772 100.67852,13.98156 28.9336,27.12392 7.7556,63.16624 -8.79448,90.06536 -22.6156,31.64696 -63.48584,45.46228 -102.4158,51.1716 -8.13548,-0.0248 -17.1958,-1.79592 -25.29596,-0.65264 z"
       id="path5293"
       inkscape:connector-curvature="0" />
    <path
       style="fill:none;fill-rule:evenodd;stroke:#000000;stroke-width:3.37680626px;stroke-linecap:butt;stroke-linejoin:miter;stroke-opacity:1"
       d="m 53.14011,582.71651 c 11.26624,4.8886 39.47472,-1.58172 43.9184,-20.55236"
       id="path2502"
       sodipodi:nodetypes="cc"
       inkscape:connector-curvature="0" />
    <path
       style="fill:none;fill-rule:evenodd;stroke:#000000;stroke-width:3.37680626px;stroke-linecap:butt;stroke-linejoin:miter;stroke-opacity:1"
       d="m 69.42951,544.04407 c 13.32424,21.68632 48.13524,23.95568 66.77228,2.1212 15.71548,-5.819 -9.246,-23.643 14.74796,-12.06552 6.07028,1.38076 10.97896,6.27272 17.23436,2.77124"
       id="path2504"
       sodipodi:nodetypes="cccc"
       inkscape:connector-curvature="0" />
    <path
       style="fill:none;fill-rule:evenodd;stroke:#000000;stroke-width:3.37680626px;stroke-linecap:butt;stroke-linejoin:miter;stroke-opacity:1"
       d="m 117.81779,560.84103 c 6.32252,23.3656 19.69552,28.68464 44.25776,21.5636"
       id="path2506"
       sodipodi:nodetypes="cc"
       inkscape:connector-curvature="0" />
    <path
       style="fill:none;fill-opacity:1;fill-rule:evenodd;stroke:#000000;stroke-width:3.37680626px;stroke-linecap:butt;stroke-linejoin:miter;stroke-opacity:1"
       d="m -1.3226099,517.11591 c 9.40968,-13.28856 60.4721999,-10.51428 92.9018399,-30.233 20.70272,-18.04916 61.18164,-24.89096 88.63424,-30.55472"
       id="path2508"
       sodipodi:nodetypes="ccc"
       inkscape:connector-curvature="0" />
    <path
       style="fill:none;fill-opacity:1;fill-rule:evenodd;stroke:#000000;stroke-width:3.37680626px;stroke-linecap:butt;stroke-linejoin:miter;stroke-opacity:1"
       d="M -8.6720899,505.15767 C 1.8116701,477.35363 38.72891,462.28371 62.50815,444.22559 c 5.48864,-3.97152 21.84624,-10.71688 27.59088,-14.3212"
       id="path2510"
       sodipodi:nodetypes="ccc"
       inkscape:connector-curvature="0" />
    <path
       style="fill:none;fill-rule:evenodd;stroke:#000000;stroke-width:3.37680626px;stroke-linecap:butt;stroke-linejoin:miter;stroke-opacity:1"
       d="M 49.23243,450.11647 C 25.76611,436.42415 -5.2255299,420.60187 -32.23913,437.71855"
       id="path2512"
       sodipodi:nodetypes="cc"
       inkscape:connector-curvature="0" />
    <path
       style="fill:none;fill-rule:evenodd;stroke:#000000;stroke-width:3.37680626px;stroke-linecap:butt;stroke-linejoin:miter;stroke-opacity:1"
       d="m 1.5569901,378.12699 c 1.28748,29.01096 36.9236399,59.337 9.4314799,85.1822 -19.2702799,18.05928 -55.44336,16.84148 -80.62272,9.88908 -6.65348,-2.87 -13.16332,-6.01268 -19.758,-8.99396"
       id="path2514"
       inkscape:connector-curvature="0" />
    <path
       style="fill:none;fill-rule:evenodd;stroke:#000000;stroke-width:3.37680626px;stroke-linecap:butt;stroke-linejoin:miter;stroke-opacity:1"
       d="m -66.54841,474.83939 c -3.39284,-1.23304 -9.37184,6.163 -11.9842,6.82988"
       id="path2516"
       sodipodi:nodetypes="cc"
       inkscape:connector-curvature="0" />
    <path
       style="fill:none;fill-rule:evenodd;stroke:#000000;stroke-width:3.37680626px;stroke-linecap:butt;stroke-linejoin:miter;stroke-opacity:1"
       d="m -44.59633,479.17423 c -3.57068,3.44916 -6.84576,9.22684 -16.70112,10.34536"
       id="path2518"
       sodipodi:nodetypes="cc"
       inkscape:connector-curvature="0" />
    <path
       style="fill:none;fill-rule:evenodd;stroke:#000000;stroke-width:3.37680626px;stroke-linecap:butt;stroke-linejoin:miter;stroke-opacity:1"
       d="m -20.16225,476.67927 c -4.54808,7.79372 -11.18696,16.37608 -19.81364,18.12004"
       id="path2520"
       sodipodi:nodetypes="cc"
       inkscape:connector-curvature="0" />
    <path
       style="fill:none;fill-rule:evenodd;stroke:#000000;stroke-width:3.37680626px;stroke-linecap:butt;stroke-linejoin:miter;stroke-opacity:1"
       d="m -7.9451699,457.96679 c -27.5996801,13.61712 -62.2152401,12.478 -85.2068001,-8.63812 -13.5388,-9.47344 -4.41388,-34.0912 -27.46168,-35.02428"
       id="path2522"
       inkscape:connector-curvature="0" />
    <path
       style="fill:none;fill-rule:evenodd;stroke:#000000;stroke-width:3.37680626px;stroke-linecap:butt;stroke-linejoin:miter;stroke-opacity:1"
       d="m -139.53557,426.99347 c 3.801,18.19472 33.1096,31.1556 15.64476,46.01896"
       id="path2524"
       sodipodi:nodetypes="cc"
       inkscape:connector-curvature="0" />
    <path
       style="fill:none;fill-rule:evenodd;stroke:#000000;stroke-width:3.37680626px;stroke-linecap:butt;stroke-linejoin:miter;stroke-opacity:1"
       d="m -159.97971,391.84947 c 7.86411,11.5242 30.8611,28.15504 25.79158,1.24752 -7.54347,-15.7286 13.9032,-31.9738 29.86392,-26.19744"
       id="path2526"
       inkscape:connector-curvature="0" />
    <path
       style="fill:none;fill-rule:evenodd;stroke:#000000;stroke-width:3.37680626px;stroke-linecap:butt;stroke-linejoin:miter;stroke-opacity:1"
       d="m -120.86065,382.81423 c 21.36328,14.57032 40.55112,44.01424 82.57236,9.04632 -18.81432,-41.923 27.31976,-59.26988 61.03096,-49.0316 46.58872,8.8724 4.76568,-42.11164 16.63684,-63.10896 17.82844,-57.55908 58.60692,-6.16712 35.47984,-71.2526 -7.38648,-11.63936 14.58852,-11.35388 26.05272,-29.13352"
       id="path2528"
       sodipodi:nodetypes="cccccc"
       inkscape:connector-curvature="0" />
    <path
       style="fill:none;fill-opacity:1;fill-rule:evenodd;stroke:#000000;stroke-width:3.37680626px;stroke-linecap:butt;stroke-linejoin:miter;stroke-opacity:1"
       d="m 36.85071,344.44455 c 11.5924,13.47636 -6.62712,48.88876 17.64688,64.86988"
       id="path2530"
       inkscape:connector-curvature="0" />
    <path
       style="fill:none;fill-rule:evenodd;stroke:#000000;stroke-width:3.37680626px;stroke-linecap:butt;stroke-linejoin:miter;stroke-opacity:1"
       d="m -66.96017,407.97823 c 1.75492,33.22036 39.69448,38.33144 57.3564401,49.54752"
       id="path2532"
       sodipodi:nodetypes="cc"
       inkscape:connector-curvature="0" />
    <path
       style="fill:none;fill-rule:evenodd;stroke:#000000;stroke-width:3.37680626px;stroke-linecap:butt;stroke-linejoin:miter;stroke-opacity:1"
       d="m -56.81337,384.36447 c -2.822,-12.72832 -12.5746,-33.02592 -30.07584,-38.6462 -11.87888,-15.17188 -0.10572,-51.108 -25.42916,-55.06744"
       id="path2534"
       sodipodi:nodetypes="ccc"
       inkscape:connector-curvature="0" />
    <path
       style="fill:none;fill-rule:evenodd;stroke:#000000;stroke-width:3.37680626px;stroke-linecap:butt;stroke-linejoin:miter;stroke-opacity:1"
       d="m -156.46963,367.99567 c 9.05054,-24.31812 52.96302,-36.73348 62.17558,-59.57768 10.96104,-27.17972 15.71156,-43.24568 45.90364,-56.95656 27.16788,-17.6916 39.7694001,-26.76532 72.99584,-29.92664 26.52908,-11.06844 0.22384,-14.033 30.55088,-30.75932"
       id="path2536"
       sodipodi:nodetypes="csccc"
       inkscape:connector-curvature="0" />
    <path
       style="fill:none;fill-rule:evenodd;stroke:#000000;stroke-width:3.37680626px;stroke-linecap:butt;stroke-linejoin:miter;stroke-opacity:1"
       d="m 24.79831,221.81155 c -15.6508399,11.44864 -37.50556,61.11424 -1.41396,38.69036 5.44184,-8.3694 19.09928,-10.72708 25.6834,-2.1346"
       id="path2540"
       sodipodi:nodetypes="ccc"
       inkscape:connector-curvature="0" />
    <path
       style="fill:none;fill-rule:evenodd;stroke:#000000;stroke-width:3.37680626px;stroke-linecap:butt;stroke-linejoin:miter;stroke-opacity:1"
       d="m 36.85071,215.95235 c 11.42468,2.78324 10.51824,12.7724 17.64688,18.71248"
       id="path2542"
       sodipodi:nodetypes="cc"
       inkscape:connector-curvature="0" />
    <path
       style="fill:none;fill-rule:evenodd;stroke:#000000;stroke-width:3.37680626px;stroke-linecap:butt;stroke-linejoin:miter;stroke-opacity:1"
       d="m 6.1774701,223.74011 c 3.02836,-7.4122 4.4728399,-13.37468 9.1045599,-18.63684"
       id="path2544"
       sodipodi:nodetypes="cc"
       inkscape:connector-curvature="0" />
    <path
       style="fill:none;fill-rule:evenodd;stroke:#000000;stroke-width:3.37680626px;stroke-linecap:butt;stroke-linejoin:miter;stroke-opacity:1"
       d="m -22.80889,236.29063 c 5.73188,2.45296 7.72248,-16.84464 10.31144,-19.30476"
       id="path2546"
       sodipodi:nodetypes="cc"
       inkscape:connector-curvature="0" />
    <path
       style="fill:none;fill-rule:evenodd;stroke:#000000;stroke-width:3.37680626px;stroke-linecap:butt;stroke-linejoin:miter;stroke-opacity:1"
       d="m -29.66437,245.89235 c -5.29564,17.52444 -13.87928,33.95752 -14.93196,52.39484"
       id="path2548"
       inkscape:connector-curvature="0" />
    <path
       style="fill:none;fill-rule:evenodd;stroke:#000000;stroke-width:3.37680626px;stroke-linecap:butt;stroke-linejoin:miter;stroke-opacity:1"
       d="m -78.53261,300.78223 c 30.15612,6.02064 2.1344,-32.02012 24.59884,-44.92292"
       id="path2550"
       sodipodi:nodetypes="cc"
       inkscape:connector-curvature="0" />
    <path
       style="fill:none;fill-rule:evenodd;stroke:#000000;stroke-width:3.37680626px;stroke-linecap:butt;stroke-linejoin:miter;stroke-opacity:1"
       d="m -77.17517,318.24715 c -5.32996,-4.04312 -10.31344,18.4938 -23.63896,10.04268"
       id="path2552"
       sodipodi:nodetypes="cc"
       inkscape:connector-curvature="0" />
    <path
       style="fill:none;fill-rule:evenodd;stroke:#000000;stroke-width:3.37680626px;stroke-linecap:butt;stroke-linejoin:miter;stroke-opacity:1"
       d="m -56.81337,338.20711 c 5.63208,-22.26064 19.50824,-37.622 39.97564,-41.7884 -9.88796,-14.00612 -16.27516,-26.7154 8.2479201,-60.154"
       id="path2554"
       sodipodi:nodetypes="ccc"
       inkscape:connector-curvature="0" />
    <path
       style="fill:none;fill-rule:evenodd;stroke:#000000;stroke-width:3.37680626px;stroke-linecap:butt;stroke-linejoin:miter;stroke-opacity:1"
       d="m -17.44729,298.28719 c 9.7338001,-7.0474 30.26796,12.80008 21.7192001,-11.22748"
       id="path2556"
       inkscape:connector-curvature="0" />
    <path
       style="fill:none;fill-rule:evenodd;stroke:#000000;stroke-width:3.37680626px;stroke-linecap:butt;stroke-linejoin:miter;stroke-opacity:1"
       d="M 0.83003008,299.74871 C 12.42835,303.01127 4.2111901,324.89915 12.41663,331.96963"
       id="path2558"
       sodipodi:nodetypes="cc"
       inkscape:connector-curvature="0" />
    <path
       style="fill:none;fill-rule:evenodd;stroke:#000000;stroke-width:3.37680626px;stroke-linecap:butt;stroke-linejoin:miter;stroke-opacity:1"
       d="m -22.16433,326.67691 c -1.27068,7.37788 -0.70496,10.58976 1.04224,18.0444"
       id="path2560"
       sodipodi:nodetypes="cc"
       inkscape:connector-curvature="0" />
    <path
       style="fill:none;fill-rule:evenodd;stroke:#000000;stroke-width:3.37680626px;stroke-linecap:butt;stroke-linejoin:miter;stroke-opacity:1"
       d="m 100.02047,364.63151 c -27.6916,-15.40088 -20.29024,-51.863 -14.01312,-72.22988 -32.22976,-26.60276 38.92304,-31.46664 14.64356,-60.23176 -8.106,-26.1024 28.64236,-28.59752 31.2214,-48.6524"
       id="path2562"
       sodipodi:nodetypes="cccc"
       inkscape:connector-curvature="0" />
    <path
       style="fill:none;fill-rule:evenodd;stroke:#000000;stroke-width:3.37680626px;stroke-linecap:butt;stroke-linejoin:miter;stroke-opacity:1"
       d="m 100.48627,253.74267 c 31.06572,-12.85028 49.2426,19.1008 73.467,28.32704"
       id="path2564"
       sodipodi:nodetypes="cc"
       inkscape:connector-curvature="0" />
    <path
       style="fill:none;fill-rule:evenodd;stroke:#000000;stroke-width:3.37680626px;stroke-linecap:butt;stroke-linejoin:miter;stroke-opacity:1"
       d="m 118.29775,295.79223 c 5.90228,10.79972 20.78984,22.14532 36.6512,24.94992"
       id="path2566"
       sodipodi:nodetypes="cc"
       inkscape:connector-curvature="0" />
    <path
       style="fill:none;fill-rule:evenodd;stroke:#000000;stroke-width:3.37680626px;stroke-linecap:butt;stroke-linejoin:miter;stroke-opacity:1"
       d="m 134.55887,339.60595 c 28.23276,-11.97636 16.52104,-42.41408 49.15816,-48.25388 23.69948,-7.81424 -25.54816,-36.41436 6.53868,-45.47172 11.93956,-11.23312 29.69216,-24.76592 2.0572,-43.81476"
       id="path2568"
       sodipodi:nodetypes="cccc"
       inkscape:connector-curvature="0" />
    <path
       style="fill:none;fill-rule:evenodd;stroke:#000000;stroke-width:3.37680626px;stroke-linecap:butt;stroke-linejoin:miter;stroke-opacity:1"
       d="m 207.80723,220.21163 c 6.07612,-25.31212 46.58384,0.5368 42.72684,-30.53024 0.002,-8.55868 17.08084,-2.495 22.51312,-12.4014"
       id="path2570"
       sodipodi:nodetypes="ccc"
       inkscape:connector-curvature="0" />
    <path
       style="fill:none;fill-rule:evenodd;stroke:#000000;stroke-width:3.37680626px;stroke-linecap:butt;stroke-linejoin:miter;stroke-opacity:1"
       d="m 221.77931,199.74791 c 4.73648,-19.03076 -3.53972,-10.75268 -7.65064,-27.01684"
       id="path2572"
       sodipodi:nodetypes="cc"
       inkscape:connector-curvature="0" />
    <path
       style="fill:none;fill-rule:evenodd;stroke:#000000;stroke-width:3.37680626px;stroke-linecap:butt;stroke-linejoin:miter;stroke-opacity:1"
       d="m 129.87019,253.23891 c -1.7282,-28.42612 19.09916,-16.41764 28.5202,-58.09256 7.67668,-17.07532 20.74724,-8.91244 29.37028,-22.33964"
       id="path2574"
       sodipodi:nodetypes="ccc"
       inkscape:connector-curvature="0" />
    <path
       style="fill:none;fill-rule:evenodd;stroke:#000000;stroke-width:3.37680626px;stroke-linecap:butt;stroke-linejoin:miter;stroke-opacity:1"
       d="m 216.03423,331.96963 c -7.5366,-14.14992 -14.6948,-33.82292 8.91492,-44.21176 14.17916,-11.76072 -11.73008,-33.75504 16.69956,-27.466 21.47584,6.00876 -4.32124,-29.85668 43.61556,-41.84448 7.52136,-15.35816 28.20948,-5.6506 32.5788,-26.19744"
       id="path2576"
       sodipodi:nodetypes="ccccc"
       inkscape:connector-curvature="0" />
    <path
       style="fill:none;fill-rule:evenodd;stroke:#000000;stroke-width:3.37680626px;stroke-linecap:butt;stroke-linejoin:miter;stroke-opacity:1"
       d="m 247.25555,294.54471 c -4.71876,-22.26232 40.81912,-21.62148 5.42988,-37.42492"
       id="path2578"
       inkscape:connector-curvature="0" />
    <path
       style="fill:none;fill-rule:evenodd;stroke:#000000;stroke-width:3.37680626px;stroke-linecap:butt;stroke-linejoin:miter;stroke-opacity:1"
       d="m 262.73571,333.50679 c 23.90344,-12.27652 41.17536,-33.02508 38.90028,-59.57712"
       id="path2580"
       sodipodi:nodetypes="cc"
       inkscape:connector-curvature="0" />
    <path
       style="fill:none;fill-rule:evenodd;stroke:#000000;stroke-width:3.37680626px;stroke-linecap:butt;stroke-linejoin:miter;stroke-opacity:1"
       d="m 304.58379,207.14427 c 23.9002,3.93244 47.74012,26.51324 73.16272,33.68412 17.2984,18.02512 51.22732,-0.52568 49.15156,32.7068 3.39788,7.43464 18.01576,23.94508 28.6922,22.62236"
       id="path2582"
       sodipodi:nodetypes="cccc"
       inkscape:connector-curvature="0" />
    <path
       style="fill:none;fill-rule:evenodd;stroke:#000000;stroke-width:3.37680626px;stroke-linecap:butt;stroke-linejoin:miter;stroke-opacity:1"
       d="m 332.45983,219.02683 c -8.15216,16.86692 -36.88272,34.43668 -30.74148,56.44004"
       id="path2584"
       sodipodi:nodetypes="cc"
       inkscape:connector-curvature="0" />
    <path
       style="fill:none;fill-rule:evenodd;stroke:#000000;stroke-width:3.37680626px;stroke-linecap:butt;stroke-linejoin:miter;stroke-opacity:1"
       d="m 318.70647,238.77271 c 21.08232,0.38092 58.02988,-2.2102 9.83152,28.02436"
       id="path2586"
       sodipodi:nodetypes="cc"
       inkscape:connector-curvature="0" />
    <path
       style="fill:none;fill-rule:evenodd;stroke:#000000;stroke-width:3.37680626px;stroke-linecap:butt;stroke-linejoin:miter;stroke-opacity:1"
       d="m 287.73219,385.17091 c 49.82452,-19.75144 14.70328,-39.04264 40.23496,-47.02656 28.11296,-13.8328 19.75728,-49.1336 43.73324,-63.45152 9.2604,-5.27352 7.834,-20.66 10.42284,-29.02752"
       id="path2588"
       sodipodi:nodetypes="cccc"
       inkscape:connector-curvature="0" />
    <path
       style="fill:none;fill-rule:evenodd;stroke:#000000;stroke-width:3.37680626px;stroke-linecap:butt;stroke-linejoin:miter;stroke-opacity:1"
       d="m 318.32299,349.81295 c -0.58732,-5.52268 -1.9986,-17.74484 -4.55228,-22.83332"
       id="path2590"
       sodipodi:nodetypes="cc"
       inkscape:connector-curvature="0" />
    <path
       style="fill:none;fill-rule:evenodd;stroke:#000000;stroke-width:3.37680626px;stroke-linecap:butt;stroke-linejoin:miter;stroke-opacity:1"
       d="m 310.72643,373.42671 c 18.92152,7.68056 53.25848,33.9796 21.5646,45.4114 -5.59528,-1.08636 -6.32216,-9.88996 -19.87772,-8.79292"
       id="path2592"
       sodipodi:nodetypes="ccc"
       inkscape:connector-curvature="0" />
    <path
       style="fill:none;fill-rule:evenodd;stroke:#000000;stroke-width:3.37680626px;stroke-linecap:butt;stroke-linejoin:miter;stroke-opacity:1"
       d="m 337.24499,390.38799 c -1.18372,-11.08816 20.47048,-11.61832 7.74708,-28.47844"
       id="path2594"
       sodipodi:nodetypes="cc"
       inkscape:connector-curvature="0" />
    <path
       style="fill:none;fill-rule:evenodd;stroke:#000000;stroke-width:3.37680626px;stroke-linecap:butt;stroke-linejoin:miter;stroke-opacity:1"
       d="m 330.06015,465.45175 c 0.5138,-10.39748 2.6444,-20.25676 6.7872,-29.93988"
       id="path2596"
       inkscape:connector-curvature="0" />
    <path
       style="fill:none;fill-rule:evenodd;stroke:#000000;stroke-width:3.37680626px;stroke-linecap:butt;stroke-linejoin:miter;stroke-opacity:1"
       d="m 362.63895,462.81843 c -11.93284,-54.72196 21.90956,-18.655 21.11772,-89.76796 33.3778,-10.91328 8.77012,-23.59108 38.61012,-58.5458 -0.091,-11.77492 1.02264,1.66148 -1.35744,-2.495"
       id="path2598"
       sodipodi:nodetypes="cccc"
       inkscape:connector-curvature="0" />
    <path
       style="fill:none;fill-rule:evenodd;stroke:#000000;stroke-width:3.37680626px;stroke-linecap:butt;stroke-linejoin:miter;stroke-opacity:1"
       d="m 409.16571,335.29323 c 3.7668,-8.18168 25.93396,1.20084 33.56284,-2.07612"
       id="path2600"
       sodipodi:nodetypes="cc"
       inkscape:connector-curvature="0" />
    <path
       style="fill:none;fill-rule:evenodd;stroke:#000000;stroke-width:3.37680626px;stroke-linecap:butt;stroke-linejoin:miter;stroke-opacity:1"
       d="m 432.82887,333.79655 c 11.77732,21.12276 51.26876,16.606 45.19344,46.82548"
       id="path2602"
       sodipodi:nodetypes="cc"
       inkscape:connector-curvature="0" />
    <path
       style="fill:none;fill-rule:evenodd;stroke:#000000;stroke-width:3.37680626px;stroke-linecap:butt;stroke-linejoin:miter;stroke-opacity:1"
       d="m 419.65187,375.63199 c 40.93448,16.12776 15.62952,25.76496 52.50308,43.24732"
       id="path2604"
       sodipodi:nodetypes="cc"
       inkscape:connector-curvature="0" />
    <path
       style="fill:none;fill-rule:evenodd;stroke:#000000;stroke-width:3.37680626px;stroke-linecap:butt;stroke-linejoin:miter;stroke-opacity:1"
       d="m 439.53371,359.18751 c 5.64408,6.67292 -10.56068,15.66488 -11.73712,21.43452"
       id="path2606"
       sodipodi:nodetypes="cc"
       inkscape:connector-curvature="0" />
    <path
       style="fill:none;fill-rule:evenodd;stroke:#000000;stroke-width:3.37680626px;stroke-linecap:butt;stroke-linejoin:miter;stroke-opacity:1"
       d="m 399.37243,378.47943 c -0.0164,34.90048 26.56892,54.91872 33.29172,68.63828"
       id="path2608"
       sodipodi:nodetypes="cc"
       inkscape:connector-curvature="0" />
    <path
       style="fill:none;fill-rule:evenodd;stroke:#000000;stroke-width:3.37680626px;stroke-linecap:butt;stroke-linejoin:miter;stroke-opacity:1"
       d="m 398.88839,380.52959 c 23.05784,42.53344 70.01804,44.7852 94.06704,31.97912 31.75936,9.23664 17.28564,52.43748 10.17972,73.5268"
       id="path2610"
       sodipodi:nodetypes="ccc"
       inkscape:connector-curvature="0" />
    <path
       style="fill:none;fill-rule:evenodd;stroke:#000000;stroke-width:3.37680626px;stroke-linecap:butt;stroke-linejoin:miter;stroke-opacity:1"
       d="m 489.04663,438.66191 c -2.10116,6.43628 -4.11604,11.74184 -6.70496,22.682"
       id="path2612"
       sodipodi:nodetypes="cc"
       inkscape:connector-curvature="0" />
    <path
       style="fill:none;fill-rule:evenodd;stroke:#000000;stroke-width:3.37680626px;stroke-linecap:butt;stroke-linejoin:miter;stroke-opacity:1"
       d="m 475.30735,439.25435 c -1.35036,8.81912 -13.24064,1.35244 -24.5988,11.7442"
       id="path2614"
       sodipodi:nodetypes="cc"
       inkscape:connector-curvature="0" />
    <path
       style="fill:none;fill-rule:evenodd;stroke:#000000;stroke-width:3.37680626px;stroke-linecap:butt;stroke-linejoin:miter;stroke-opacity:1"
       d="m 491.38395,413.37259 c 17.43292,-14.281 13.97132,-56.88948 -2.50208,-66.433"
       id="path2616"
       sodipodi:nodetypes="cc"
       inkscape:connector-curvature="0" />
    <path
       style="fill:none;fill-rule:evenodd;stroke:#000000;stroke-width:3.37680626px;stroke-linecap:butt;stroke-linejoin:miter;stroke-opacity:1"
       d="m 502.57291,387.04215 c 1.81032,-5.18204 10.25672,-10.67428 13.458,-15.15264"
       id="path2618"
       sodipodi:nodetypes="cc"
       inkscape:connector-curvature="0" />
    <path
       style="fill:none;fill-rule:evenodd;stroke:#000000;stroke-width:3.37680626px;stroke-linecap:butt;stroke-linejoin:miter;stroke-opacity:1"
       d="m 463.51199,353.35055 c 13.55028,-39.89576 -30.52744,-72.81788 -63.1496,-56.3498 -29.00332,-1.58712 -22.48136,21.60476 -27.72888,38.16976 -12.35764,3.96268 -23.94776,-1.67028 -27.64144,-13.18088"
       id="path2620"
       sodipodi:nodetypes="cccc"
       inkscape:connector-curvature="0" />
    <path
       style="fill:none;fill-rule:evenodd;stroke:#000000;stroke-width:3.37680626px;stroke-linecap:butt;stroke-linejoin:miter;stroke-opacity:1"
       d="m 411.50715,292.04967 c -0.51084,-14.43144 -0.87616,-30.82688 -19.00428,-42.41488"
       id="path2622"
       inkscape:connector-curvature="0" />
    <path
       style="fill:none;fill-rule:evenodd;stroke:#000000;stroke-width:3.37680626px;stroke-linecap:butt;stroke-linejoin:miter;stroke-opacity:1"
       d="m 358.22723,229.98675 c 20.30136,-10.003 28.92624,-8.4336 31.22136,-11.22748"
       id="path2624"
       sodipodi:nodetypes="cc"
       inkscape:connector-curvature="0" />
    <path
       style="fill:none;fill-rule:evenodd;stroke:#000000;stroke-width:3.37680626px;stroke-linecap:butt;stroke-linejoin:miter;stroke-opacity:1"
       d="m 373.49855,222.18987 c -17.7622,-13.43248 -38.35992,-21.8314 -58.3704,-31.1874"
       id="path2626"
       inkscape:connector-curvature="0" />
    <path
       style="fill:none;fill-rule:evenodd;stroke:#000000;stroke-width:3.37680626px;stroke-linecap:butt;stroke-linejoin:miter;stroke-opacity:1"
       d="m 465.57235,330.49515 c 2.577,-6.23936 20.20192,-11.34572 25.72336,-15.12136"
       id="path2628"
       sodipodi:nodetypes="cc"
       inkscape:connector-curvature="0" />
    <path
       style="fill:none;fill-rule:evenodd;stroke:#000000;stroke-width:3.37680626px;stroke-linecap:butt;stroke-linejoin:miter;stroke-opacity:1"
       d="m 245.21947,532.19291 c 29.91312,-1.2394 59.8946,-12.009 90.81856,-16.55152 26.64136,10.17816 59.21648,-0.91948 89.23912,0.97792 24.94016,1.4098 50.81552,1.77056 75.65708,-3.62428"
       id="path2630"
       sodipodi:nodetypes="cccc"
       inkscape:connector-curvature="0" />
    <path
       style="fill:none;fill-rule:evenodd;stroke:#000000;stroke-width:3.37680626px;stroke-linecap:butt;stroke-linejoin:miter;stroke-opacity:1"
       d="m 259.47271,535.31163 c 21.81096,14.60228 60.47012,15.60104 69.22996,-12.475"
       id="path2632"
       inkscape:connector-curvature="0" />
    <path
       style="fill:none;fill-rule:evenodd;stroke:#000000;stroke-width:3.37680626px;stroke-linecap:butt;stroke-linejoin:miter;stroke-opacity:1"
       d="m 272.25203,532.58959 c 5.79044,1.87876 -19.89964,12.94196 -11.1408,20.33832"
       id="path2634"
       sodipodi:nodetypes="cc"
       inkscape:connector-curvature="0" />
    <path
       style="fill:none;fill-rule:evenodd;stroke:#000000;stroke-width:3.37680626px;stroke-linecap:butt;stroke-linejoin:miter;stroke-opacity:1"
       d="m 285.59359,530.59839 c -5.41964,4.83632 -14.03456,21.50664 -13.90384,28.41568"
       id="path2636"
       sodipodi:nodetypes="cc"
       inkscape:connector-curvature="0" />
    <path
       style="fill:none;fill-rule:evenodd;stroke:#000000;stroke-width:3.37680626px;stroke-linecap:butt;stroke-linejoin:miter;stroke-opacity:1"
       d="m 296.45323,527.14559 c -7.12732,6.4222 -17.70896,30.38628 -11.18896,38.10596"
       id="path2638"
       sodipodi:nodetypes="cc"
       inkscape:connector-curvature="0" />
    <path
       style="fill:none;fill-rule:evenodd;stroke:#000000;stroke-width:3.37680626px;stroke-linecap:butt;stroke-linejoin:miter;stroke-opacity:1"
       d="m 307.62811,525.16731 c -17.7328,27.07592 -1.17448,54.58508 23.74864,62.8254 30.73572,13.78364 47.51768,12.72044 81.48788,13.95296"
       id="path2640"
       sodipodi:nodetypes="ccc"
       inkscape:connector-curvature="0" />
    <path
       style="fill:none;fill-rule:evenodd;stroke:#000000;stroke-width:3.37680626px;stroke-linecap:butt;stroke-linejoin:miter;stroke-opacity:1"
       d="m 319.69459,522.43231 c -10.20084,48.98252 35.05756,46.86132 68.04584,55.20656 17.39876,4.22092 55.4322,4.74224 72.79968,1.33516"
       id="path2642"
       sodipodi:nodetypes="ccc"
       inkscape:connector-curvature="0" />
    <path
       style="fill:none;fill-rule:evenodd;stroke:#000000;stroke-width:3.37680626px;stroke-linecap:butt;stroke-linejoin:miter;stroke-opacity:1"
       d="m 323.22467,520.11999 c 6.85412,36.63924 31.603,38.28456 61.91352,42.40268 32.47708,2.82624 63.02096,7.94796 94.48856,-2.26112 l -8.39172,1.24752"
       id="path2644"
       sodipodi:nodetypes="cccc"
       inkscape:connector-curvature="0" />
    <path
       style="fill:none;fill-rule:evenodd;stroke:#000000;stroke-width:3.37680626px;stroke-linecap:butt;stroke-linejoin:miter;stroke-opacity:1"
       d="m 328.29091,521.63887 c 12.24676,27.24432 61.57208,32.41476 91.72668,31.5474 16.16656,3.03324 73.33144,-5.44096 66.56112,-3.7868"
       id="path2646"
       sodipodi:nodetypes="ccc"
       inkscape:connector-curvature="0" />
    <path
       style="fill:none;fill-rule:evenodd;stroke:#000000;stroke-width:3.37680626px;stroke-linecap:butt;stroke-linejoin:miter;stroke-opacity:1"
       d="m 332.85735,519.59791 c 7.4524,19.31356 61.14696,23.94896 94.07592,25.2656 21.93676,1.86344 54.72872,-5.96372 64.66356,-5.8094"
       id="path2648"
       sodipodi:nodetypes="ccc"
       inkscape:connector-curvature="0" />
    <path
       style="fill:none;fill-rule:evenodd;stroke:#000000;stroke-width:3.37680626px;stroke-linecap:butt;stroke-linejoin:miter;stroke-opacity:1"
       d="m 335.29703,519.08119 c 27.46056,14.22004 80.46844,16.43128 113.56152,14.94312 16.60816,-1.03432 31.8824,-1.89948 49.52552,-6.19764"
       id="path2650"
       sodipodi:nodetypes="ccc"
       inkscape:connector-curvature="0" />
    <path
       style="fill:none;fill-rule:evenodd;stroke:#000000;stroke-width:3.37680626px;stroke-linecap:butt;stroke-linejoin:miter;stroke-opacity:1"
       d="m 311.86515,525.73375 c -20.55348,46.82064 37.48888,54.29372 61.01296,62.49792 17.25552,3.53604 44.24588,5.1192 61.96688,5.4226"
       id="path2652"
       sodipodi:nodetypes="ccc"
       inkscape:connector-curvature="0" />
    <path
       style="fill:#a0c57a;fill-opacity:1;stroke-width:4"
       d=""
       id="path2798"
       inkscape:connector-curvature="0" />
    <path
       style="fill:#ff6d09;fill-opacity:1;fill-rule:evenodd;stroke:#000000;stroke-width:3.37680626px;stroke-linecap:butt;stroke-linejoin:miter;stroke-opacity:1"
       d="m 173.28759,376.18327 c 39.48624,-14.70348 69.3,4.006 80.84744,11.51368 14.82196,9.29736 25.1032,33.14808 8.80464,44.62052 -19.558,7.3778 -14.03896,13.77416 -32.21544,17.68708 -9.74372,-0.20548 -13.78652,-2.54888 -23.64712,-1.85396"
       id="path2806"
       sodipodi:nodetypes="ccccc"
       inkscape:connector-curvature="0" />
    <path
       style="opacity:1;fill:#f515cf;fill-opacity:1;fill-rule:evenodd;stroke:#000000;stroke-width:3.37680626px;stroke-linecap:butt;stroke-linejoin:miter;stroke-opacity:1"
       d="m 170.12787,372.29067 c 18.484,-6.3988 13.32484,-10.1594 37.85384,-6.76676 23.57932,3.39732 47.57392,11.22052 63.81296,28.04308 21.0352,18.37868 18.98092,56.9782 -7.83112,69.88496 -10.42168,5.01684 -22.70944,10.62484 -32.05668,12.5974 -14.453,3.77952 -48.94444,-11.43176 -58.70104,4.449 -13.03588,-3.97808 -15.65492,-5.65768 -26.36576,3.50036 -5.44616,11.26404 4.08444,15.48008 14.61896,15.64688 11.5478,-2.99928 10.27952,-6.12488 14.51644,-12.98692 8.31132,-13.26964 45.7404,1.11292 62.23764,-4.45476 24.67604,-5.5574 46.82532,-17.88452 57.94404,-38.89184 4.08332,-12.9468 6.08968,-24.00428 -0.31236,-44.02648 -3.30792,-10.084 -16.21652,-21.52632 -25.8656,-29.27108 -20.82624,-14.5114 -40.88032,-22.53892 -67.9522,-29.22052 -19.88724,-3.59336 -33.89472,-3.17992 -52.82136,-0.50644 -13.87012,2.52732 -30.69492,7.83868 -40.1376,18.26148 -12.7358,12.98396 -21.3122,24.76072 -25.23188,41.74576 -2.2402,13.94208 1.7334,28.81296 13.82868,35.86012 5.28236,6.0076 30.70372,8.8482 44.6996,17.87272 19.139,6.40856 58.25892,3.23472 71.34204,-10.31528 8.69256,-15.36716 32.88328,-16.88504 28.97552,-32.3474 -2.85516,-19.25212 -22.67936,-20.45224 -41.48516,-28.90616 -7.4622,-3.23708 -21.33508,-9.01276 -31.06896,-10.16812 z"
       id="path2804"
       sodipodi:nodetypes="cccsccccccccccccccccccc"
       inkscape:connector-curvature="0" />
    <path
       style="opacity:1;fill:#b908ad;fill-opacity:1;fill-rule:evenodd;stroke:url(#radialGradient4767);stroke-width:3.37680626px;stroke-linecap:butt;stroke-linejoin:miter;stroke-opacity:1"
       d="m 232.84967,367.72879 c -55.09,-11.30376 -45.95064,-3.89072 -66.5844,4.21872 -9.73388,-1.1554 -11.46612,2.65264 -19.6214,4.00936 -11.71812,5.95704 -11.11448,4.638 -20.49364,12.726 -17.20892,20.71428 -4.05972,9.79416 -10.21792,13.84296 -16.93192,10.54668 -12.46016,-9.02152 1.17524,-25.6184 9.62928,-11.72064 49.84372,-39.83924 115.74212,-9.17864 z"
       id="path3307"
       sodipodi:nodetypes="cccccsc"
       inkscape:connector-curvature="0" />
    <path
       style="fill:#ffd5d5;fill-opacity:1;fill-rule:evenodd;stroke:#000000;stroke-width:3.37680626px;stroke-linecap:butt;stroke-linejoin:miter;stroke-opacity:1"
       d="m 279.15575,668.17003 c -16.67984,-13.95464 -37.30424,-26.61548 -44.01716,-47.56512 -4.624,-6.16036 1.63848,-11.99352 0.23932,-17.61652 -22.26716,-8.93024 -47.484,-15.92204 -63.049,-34.20384 -6.51884,-8.06644 -10.61512,-18.97168 -5.8424,-28.65884 5.1536,-13.3982 17.2002,-23.60484 30.5434,-30.23188 -2.21216,-10.88416 11.75164,-17.46728 21.12832,-11.81844 12.48604,4.30436 10.67408,16.79628 12.79152,26.18224 9.32476,26.62392 27.248,50.8942 51.10748,68.2634 30.48272,17.81432 59.68464,40.6638 74.6844,71.5744 3.48384,5.02652 2.34312,7.40584 -4.2262,5.99344 5.40044,0.2174 6.73108,0.19152 0.37812,0.052 -24.69144,-0.58648 -49.38448,-1.11904 -74.0772,-1.65888"
       id="path2484"
       inkscape:connector-curvature="0" />
    <path
       style="fill:none;fill-rule:evenodd;stroke:#000000;stroke-width:3.37680626px;stroke-linecap:butt;stroke-linejoin:miter;stroke-opacity:1"
       d="m 454.07591,296.84727 c 4.13056,-24.64568 -4.12228,-32.23764 -4.12228,-32.23764"
       id="path2816"
       sodipodi:nodetypes="cc"
       inkscape:connector-curvature="0" />
    <path
       style="fill:none;fill-rule:evenodd;stroke:#000000;stroke-width:3.37680626px;stroke-linecap:butt;stroke-linejoin:miter;stroke-opacity:1"
       d="m 383.78299,221.76059 c 22.40628,10.4508 32.5372,31.38312 32.5372,31.38312"
       id="path2818"
       sodipodi:nodetypes="cc"
       inkscape:connector-curvature="0" />
    <path
       style="fill:#dd88ad;fill-opacity:1;stroke-width:4"
       d=""
       id="path2868"
       inkscape:connector-curvature="0" />
    <path
       style="fill:none;fill-opacity:1;stroke-width:4"
       d="m 262.60947,496.65811 c 9.24708,-7.82128 20.48384,-14.41396 39.02188,-22.8944 8.30248,-3.79804 14.25124,-4.81228 37.43464,-6.38248 16.7798,-1.13648 31.31876,-3.10344 37.16212,-5.02764 5.27924,-1.73844 14.71528,-4.90416 20.96884,-7.03488 16.78528,-5.71916 37.81864,-5.4628 57.73996,0.7036 30.96676,9.5854 43.35704,20.44716 46.3702,40.64976 l 1.18488,7.94468 -124.56312,-0.07 -124.5632,-0.0701 z"
       id="path2880"
       inkscape:connector-curvature="0" />
    <path
       style="fill:none;fill-opacity:1;stroke-width:4"
       d="m 246.64667,524.30367 c 0,-2.93888 0.84244,-7.37984 1.87216,-9.8688 l 1.87224,-4.52544 125.30956,0.20288 c 85.80324,0.13892 122.88872,0.7452 117.63072,1.923 -4.22336,0.94604 -25.38836,1.93228 -47.03324,2.1916 -21.64492,0.2594 -51.25528,1.10368 -65.80084,1.8762 -19.09044,1.01392 -29.23576,0.7978 -36.4748,-0.77704 -9.36776,-2.038 -12.24116,-1.71596 -43.62352,4.8888 -18.47736,3.88884 -38.13056,7.60196 -43.67376,8.25136 l -10.07852,1.18084 z"
       id="path2882"
       inkscape:connector-curvature="0" />
    <path
       style="fill:#d2e09b;fill-opacity:1;stroke-width:4"
       d=""
       id="path2888"
       inkscape:connector-curvature="0" />
    <path
       style="fill:#d2e09b;fill-opacity:1;stroke-width:4"
       d="m 410.07763,551.55891 c 1.97972,-0.19036 5.21928,-0.19036 7.19896,0 1.97972,0.19032 0.35996,0.346 -3.59944,0.346 -3.95944,0 -5.57924,-0.15568 -3.59952,-0.346 z"
       id="path2890"
       inkscape:connector-curvature="0" />
  </g>
</svg>
